RBDS016runT35_grf
version=1
nRows=18
nColumns=19
inDegrees=no
endheader
time	ground_force_r_vx	ground_force_r_vy	ground_force_r_vz	ground_force_r_px	ground_force_r_py	ground_force_r_pz	ground_force_r_mx	ground_force_r_my	ground_force_r_mz	ground_force_l_vx	ground_force_l_vy	ground_force_l_vz	ground_force_l_px	ground_force_l_py	ground_force_l_pz	ground_force_l_mx	ground_force_l_my	ground_force_l_mz
     22.49800000	      0.00000000	      0.00000000	      0.00000000	      0.00000000	      0.00000000	      0.00000000	      0.00000000	      0.00000000	      0.00000000	    -66.41021288	    518.88293051	     23.86787787	      2.62268774	      0.00000000	      0.95018505	      0.00000000	      3.95934571	      0.00000000
     22.49900000	      0.00000000	      0.00000000	      0.00000000	      0.00000000	      0.00000000	      0.00000000	      0.00000000	      0.00000000	      0.00000000	    -69.26498315	    548.06569070	     23.88805998	      2.62288089	      0.00000000	      0.95039674	      0.00000000	      3.90635702	      0.00000000
     22.50000000	      0.00000000	      0.00000000	      0.00000000	      0.00000000	      0.00000000	      0.00000000	      0.00000000	      0.00000000	      0.00000000	    -72.11975341	    577.24845089	     23.90824209	      2.62307405	      0.00000000	      0.95060844	      0.00000000	      3.85336834	      0.00000000
     22.50100000	      0.00000000	      0.00000000	      0.00000000	      0.00000000	      0.00000000	      0.00000000	      0.00000000	      0.00000000	      0.00000000	    -75.00753530	    605.41390166	     23.91148036	      2.62313772	      0.00000000	      0.95080446	      0.00000000	      3.81646053	      0.00000000
     22.50200000	      0.00000000	      0.00000000	      0.00000000	      0.00000000	      0.00000000	      0.00000000	      0.00000000	      0.00000000	      0.00000000	    -77.89531718	    633.57935243	     23.91471863	      2.62320140	      0.00000000	      0.95100048	      0.00000000	      3.77955272	      0.00000000
     22.50300000	      0.00000000	      0.00000000	      0.00000000	      0.00000000	      0.00000000	      0.00000000	      0.00000000	      0.00000000	      0.00000000	    -80.78309906	    661.74480320	     23.91795689	      2.62326508	      0.00000000	      0.95119650	      0.00000000	      3.74264491	      0.00000000
     22.50400000	      0.00000000	      0.00000000	      0.00000000	      0.00000000	      0.00000000	      0.00000000	      0.00000000	      0.00000000	      0.00000000	    -83.67897592	    689.14551966	     23.90911430	      2.62322815	      0.00000000	      0.95138042	      0.00000000	      3.71708104	      0.00000000
     22.50500000	      0.00000000	      0.00000000	      0.00000000	      0.00000000	      0.00000000	      0.00000000	      0.00000000	      0.00000000	      0.00000000	    -86.57890026	    716.16386898	     23.89423127	      2.62314091	      0.00000000	      0.95155829	      0.00000000	      3.69718914	      0.00000000
     22.50600000	      0.00000000	      0.00000000	      0.00000000	      0.00000000	      0.00000000	      0.00000000	      0.00000000	      0.00000000	      0.00000000	    -89.47882461	    743.18221829	     23.87934824	      2.62305367	      0.00000000	      0.95173616	      0.00000000	      3.67729724	      0.00000000
     22.50700000	      0.00000000	      0.00000000	      0.00000000	      0.00000000	      0.00000000	      0.00000000	      0.00000000	      0.00000000	      0.00000000	    -92.37371699	    769.78484823	     23.85880563	      2.62291017	      0.00000000	      0.95190731	      0.00000000	      3.66330463	      0.00000000
     22.50800000	      0.00000000	      0.00000000	      0.00000000	      0.00000000	      0.00000000	      0.00000000	      0.00000000	      0.00000000	      0.00000000	    -95.25854545	    795.55603942	     23.82694385	      2.62265415	      0.00000000	      0.95206500	      0.00000000	      3.66111058	      0.00000000
     22.50900000	      0.00000000	      0.00000000	      0.00000000	      0.00000000	      0.00000000	      0.00000000	      0.00000000	      0.00000000	      0.00000000	    -98.14337391	    821.32723061	     23.79508207	      2.62239813	      0.00000000	      0.95222269	      0.00000000	      3.65891653	      0.00000000
     22.51000000	      0.00000000	      0.00000000	      0.00000000	      0.00000000	      0.00000000	      0.00000000	      0.00000000	      0.00000000	      0.00000000	   -101.02820237	    847.09842179	     23.76322029	      2.62214211	      0.00000000	      0.95238038	      0.00000000	      3.65672248	      0.00000000
     22.51100000	      0.00000000	      0.00000000	      0.00000000	      0.00000000	      0.00000000	      0.00000000	      0.00000000	      0.00000000	      0.00000000	   -103.86467564	    871.55311457	     23.71795290	      2.62170334	      0.00000000	      0.95251632	      0.00000000	      3.67261601	      0.00000000
     22.51200000	      0.00000000	      0.00000000	      0.00000000	      0.00000000	      0.00000000	      0.00000000	      0.00000000	      0.00000000	      0.00000000	   -106.70114892	    896.00780735	     23.67268551	      2.62126458	      0.00000000	      0.95265225	      0.00000000	      3.68850954	      0.00000000
     22.51300000	      0.00000000	      0.00000000	      0.00000000	      0.00000000	      0.00000000	      0.00000000	      0.00000000	      0.00000000	      0.00000000	   -109.53762219	    920.46250012	     23.62741812	      2.62082581	      0.00000000	      0.95278819	      0.00000000	      3.70440307	      0.00000000
     22.51400000	      0.00000000	      0.00000000	      0.00000000	      0.00000000	      0.00000000	      0.00000000	      0.00000000	      0.00000000	      0.00000000	   -112.31615159	    944.01368320	     23.57722804	      2.62025864	      0.00000000	      0.95290886	      0.00000000	      3.73240918	     -0.00000000
     22.51500000	      0.00000000	      0.00000000	      0.00000000	      0.00000000	      0.00000000	      0.00000000	      0.00000000	      0.00000000	      0.00000000	   -115.06570906	    967.11311143	     23.52457662	      2.61962726	      0.00000000	      0.95302190	      0.00000000	      3.76647158	     -0.00000000
